<svg width="1649.928955" height="299.023438" viewBox="0 0 1649.93 299.023" fill="none" xmlns="http://www.w3.org/2000/svg" xmlns:xlink="http://www.w3.org/1999/xlink">
	<desc>
			Created with Pixso.
	</desc>
	<defs>
		<linearGradient x1="823.285156" y1="-93.078125" x2="823.285156" y2="293.921875" id="paint_linear_7_78_0" gradientUnits="userSpaceOnUse">
			<stop stop-color="#BC10D8"/>
			<stop offset="1.000000" stop-color="#5000FA" stop-opacity="0.929412"/>
		</linearGradient>
	</defs>
	<g opacity="0.100000">
		<path id="OCULUS" d="M136.13 0C213.28 0 272.36 54.29 272.36 149.51C272.36 244.62 213.28 298.92 136.13 298.92C58.59 298.92 0 244.23 0 149.51C0 54.29 58.59 0 136.13 0ZM448.23 0C515.61 0 566.39 38.67 574.5 105.85L512.29 105.85C507.6 73.92 483.29 54.39 449.69 54.39C404.67 54.39 375.08 88.96 375.08 149.51C375.08 211.71 405.06 244.53 449.21 244.53C482.02 244.53 506.53 226.56 512.29 195.5L574.5 195.8C567.86 249.31 522.84 298.92 448.23 298.92C370.4 298.92 312.78 244.33 312.78 149.51C312.78 54.29 371.37 0 448.23 0ZM1646.02 87.69L1587.04 87.69C1584.79 64.84 1566.73 51.46 1537.33 51.46C1507.16 51.46 1490.55 65.23 1490.55 83.98C1490.16 104.88 1511.35 114.25 1536.65 120.02L1562.72 126.27C1613.31 137.69 1649.83 163.37 1649.93 211.81C1649.83 265.13 1608.03 299.02 1537.04 299.02C1466.43 299.02 1421.41 266.5 1419.85 203.61L1479.32 203.61C1481.37 232.71 1504.32 247.46 1536.35 247.46C1567.6 247.46 1587.72 233 1587.92 211.71C1587.72 192.09 1570.14 183 1538.41 175.29L1506.76 167.38C1457.64 155.56 1427.37 130.95 1427.47 88.08C1427.27 35.25 1473.95 0 1537.72 0C1602.47 0 1645.14 35.83 1646.02 87.69ZM798.4 187.69L798.4 4L859.92 4L859.92 192.96C859.92 256.54 811.58 299.02 739.32 299.02C666.76 299.02 618.71 256.54 618.71 192.96L618.71 4L680.23 4L680.23 187.69C680.23 220.89 703.67 244.92 739.32 244.92C775.06 244.92 798.4 220.89 798.4 187.69ZM1096.71 294.92L910.47 294.92L910.47 4L971.99 4L971.99 244.23L1096.71 244.23L1096.71 294.92ZM1317.15 187.69L1317.15 4L1378.68 4L1378.68 192.96C1378.68 256.54 1330.34 299.02 1258.06 299.02C1185.51 299.02 1137.46 256.54 1137.46 192.96L1137.46 4L1198.99 4L1198.99 187.69C1198.99 220.89 1222.43 244.92 1258.06 244.92C1293.81 244.92 1317.15 220.89 1317.15 187.69ZM136.13 244.53C180.76 244.53 210.05 211.13 210.05 149.51C210.05 87.79 180.76 54.39 136.13 54.39C91.4 54.39 62.3 87.79 62.3 149.51C62.3 211.13 91.4 244.53 136.13 244.53Z" fill="url(#paint_linear_7_78_0)" fill-opacity="1.000000" fill-rule="evenodd"/>
	</g>
</svg>
